<svg width="16" height="16" viewBox="0 0 16 16" fill="none" xmlns="http://www.w3.org/2000/svg">
<path d="M13.6596 2.34038C10.5391 -0.780136 5.46133 -0.780443 2.3405 2.34038C-0.780321 5.46121 -0.780014 10.5386 2.3405 13.6594C5.46102 16.7803 10.5387 16.7803 13.6596 13.6594C16.7801 10.5386 16.7801 5.4609 13.6596 2.34038ZM11.1563 11.1561C10.9158 11.3966 10.5261 11.3966 10.2857 11.1561L8.00004 8.87047L5.6057 11.2648C5.36528 11.5052 4.97556 11.5052 4.73515 11.2648C4.49473 11.0244 4.49473 10.6347 4.73515 10.3942L7.12948 7.99992L4.84381 5.71424C4.60339 5.47383 4.60339 5.0838 4.84381 4.84369C5.08423 4.60327 5.47395 4.60327 5.71437 4.84369L8.00004 7.12936L10.1767 4.95266C10.4172 4.71224 10.8069 4.71224 11.0473 4.95266C11.2877 5.19308 11.2877 5.5828 11.0473 5.82322L8.87059 7.99992L11.1563 10.2856C11.3967 10.526 11.3967 10.9157 11.1563 11.1561Z" fill="#CCCCCC"/>
</svg>
