<svg width="16" height="16" viewBox="0 0 16 16" fill="none" xmlns="http://www.w3.org/2000/svg">
<path d="M7.96875 0C3.57469 0 0 3.57469 0 7.96875C0 12.3628 3.57469 16 7.96875 16C12.3628 16 16 12.3628 16 7.96875C16 3.57469 12.3628 0 7.96875 0ZM11.3125 10.3125C10.679 10.3125 10.1202 9.99497 9.78072 9.51262C9.35094 9.99909 8.72981 10.3125 8.03125 10.3125C6.73897 10.3125 5.6875 9.26103 5.6875 7.96875C5.6875 6.67647 6.73897 5.625 8.03125 5.625C8.56087 5.625 9.04456 5.80828 9.4375 6.10572V6.09375C9.4375 5.83466 9.64716 5.625 9.90625 5.625C10.1653 5.625 10.375 5.83466 10.375 6.09375C10.375 7.13625 10.375 7.39453 10.375 8.4375C10.375 8.95431 10.7957 9.375 11.3125 9.375C11.8293 9.375 12.25 8.95431 12.25 8.4375C12.25 5.30028 10.174 3.75 8.03125 3.75C5.70491 3.75 3.8125 5.64241 3.8125 7.96875C3.8125 10.2951 5.70491 12.1875 8.03125 12.1875C8.96875 12.1875 9.85544 11.8872 10.5957 11.3187C11.0901 10.9412 11.6563 11.6863 11.1669 12.0621C10.261 12.7574 9.17703 13.125 8.03125 13.125C5.18809 13.125 2.875 10.8119 2.875 7.96875C2.875 5.12559 5.18809 2.8125 8.03125 2.8125C10.6218 2.8125 13.1875 4.72297 13.1875 8.4375C13.1875 9.47159 12.3466 10.3125 11.3125 10.3125Z" fill="#999999"/>
</svg>
