<svg width="267" height="164" viewBox="0 0 267 164" fill="none" xmlns="http://www.w3.org/2000/svg">
<g clip-path="url(#clip0)">
<path d="M248.721 137.801C246.702 132.622 245.195 127.124 243.55 121.318C242.439 117.403 240.651 113.026 236.778 111.795C233.005 110.596 228.945 113.081 226.629 116.287C224.308 119.492 223.142 123.374 221.156 126.799C217.559 133.001 211.194 135.602 205.93 130.148C198.41 122.357 195.027 111.74 190.258 102.239C186.798 95.3442 183.899 87.2673 179.537 80.9114C172.886 71.2181 163.766 62.9543 151.642 62.9543C143.957 64.12 137.186 70.9212 132.598 79.4269C128.016 87.9326 125.342 98.0438 123.065 108.133C118.923 126.48 115.886 145.251 112.855 164C112.855 164 265.839 162.219 265.845 162.219C265.234 162.224 261.488 157.215 260.768 156.523C254.893 150.837 251.367 144.591 248.721 137.801Z" fill="#DCE6EF"/>
<path d="M219.682 146.543C219.38 152.487 212.911 162.879 206.964 162.582C201.018 162.285 197.844 151.404 198.146 145.46C198.449 139.517 204.78 109.771 210.727 110.068C216.673 110.365 219.985 140.6 219.682 146.543Z" fill="#6AA5FE"/>
<path d="M210.441 113.934L207.443 162.103" stroke="#1A55B5" stroke-width="0.8675" stroke-miterlimit="10" stroke-linecap="round" stroke-linejoin="round"/>
<path d="M206.073 145.306C204.72 148.281 203.686 151.398 203.064 154.653C202.75 156.303 202.547 158.089 203.295 159.59C204.109 161.234 205.919 162.191 207.729 162.488C212.151 163.214 216.569 160.509 219.159 156.852C221.75 153.202 222.872 148.737 223.901 144.377C224.71 140.946 225.507 137.466 227.037 134.266C227.691 132.897 231.531 127.602 229.716 126.233C227.235 124.281 220.045 126.403 215.441 131.429C211.651 135.563 208.389 140.22 206.073 145.306Z" fill="#FFC957"/>
<path d="M207.729 162.483C207.729 162.483 213.064 141.716 225.953 129.807" stroke="#6AA5FE" stroke-width="0.8675" stroke-miterlimit="10" stroke-linecap="round" stroke-linejoin="round"/>
<path d="M237.335 140.407C236.878 141.226 236.02 141.782 235.244 142.222C234.287 142.76 233.264 143.233 232.279 143.695C231.014 144.283 229.705 144.894 228.495 145.652C227.615 146.208 226.828 146.829 226.173 147.5C227.213 145.141 228.423 143.085 229.853 141.243C231.735 138.824 233.665 137.598 235.596 137.598C235.64 137.598 235.684 137.598 235.728 137.598C236.322 137.614 236.79 137.763 237.109 138.038C237.764 138.598 237.736 139.681 237.335 140.407Z" fill="#1A55B5"/>
<path d="M239.491 153.834C238.726 154.378 237.714 154.516 236.823 154.582C235.728 154.658 234.6 154.653 233.511 154.642C232.114 154.631 230.667 154.62 229.254 154.79C228.22 154.911 227.246 155.142 226.366 155.467C228.313 153.779 230.293 152.437 232.373 151.387C235.112 150.002 237.378 149.721 239.122 150.546C239.161 150.562 239.205 150.584 239.243 150.606C239.777 150.876 240.134 151.211 240.305 151.596C240.651 152.382 240.162 153.355 239.491 153.834Z" fill="#1A55B5"/>
<path d="M234.403 160.443C233.77 160.355 233.198 159.948 232.725 159.563C232.142 159.09 231.586 158.557 231.047 158.045C230.354 157.386 229.644 156.704 228.858 156.127C228.286 155.703 227.692 155.362 227.103 155.109C228.863 155.181 230.475 155.445 232.004 155.896C234.012 156.489 235.277 157.413 235.756 158.639C235.767 158.667 235.778 158.694 235.789 158.727C235.926 159.112 235.948 159.442 235.855 159.717C235.657 160.267 234.964 160.52 234.403 160.443Z" fill="#1A55B5"/>
<path d="M219.93 162.598C219.93 162.598 219.99 149.892 235.514 139.104" stroke="#2A294F" stroke-width="0.7798" stroke-miterlimit="10" stroke-linecap="round" stroke-linejoin="round"/>
<path d="M219.93 162.598C219.93 162.598 224.699 152.388 237.62 152.388" stroke="#2A294F" stroke-width="0.7798" stroke-miterlimit="10" stroke-linecap="round" stroke-linejoin="round"/>
<path d="M226.965 155.23C226.965 155.23 229.468 155.049 234.694 158.986" stroke="#2A294F" stroke-width="0.7798" stroke-miterlimit="10" stroke-linecap="round" stroke-linejoin="round"/>
<path d="M86.5284 162.708C82.9419 149.149 79.3333 135.585 75.1142 122.456C72.7378 115.05 70.1084 107.677 66.4613 101.755C62.8143 95.8335 57.9845 91.4624 53.1328 91.4899C45.6626 92.9359 40.8384 100.309 37.6754 108.479C35.6016 113.835 34.5949 120.322 33.1317 125.986C31.1129 133.782 30.0512 142.266 26.1731 149.083C23.4557 153.861 19.2806 152.641 16.4642 148.352C14.9129 145.982 13.8128 143.167 12.0745 141.007C10.3362 138.846 7.5913 137.438 5.38546 138.802C3.11361 140.204 2.437 143.745 2.12896 146.857C1.67789 151.47 1.27633 155.83 0.533712 160.014C0.374187 160.927 0.192659 161.823 -0.00537109 162.719H86.5284V162.708Z" fill="#DCE6EF"/>
<path d="M54.4418 143.992C52.1975 141.408 49.359 139.176 48.4679 135.915C47.8133 133.535 48.3304 131.011 48.5834 128.553C48.8364 126.096 48.7484 123.379 47.1587 121.488C45.8495 119.927 43.7757 119.25 41.7844 118.821C39.7931 118.393 37.7137 118.123 35.948 117.111C33.0765 115.468 33.6486 112.669 32.1084 110.217C30.3811 107.462 26.3545 103.949 22.911 105.78C19.2584 107.715 19.836 113.598 22.2674 116.193C23.8791 117.914 25.9419 119.569 26.1785 121.911C26.536 125.441 22.4874 128.625 23.5986 131.995C24.4237 134.486 27.5592 135.338 29.1104 137.455C30.6451 139.55 30.3371 142.48 29.4295 144.91C28.5273 147.341 27.1026 149.589 26.5415 152.124C25.3918 157.303 29.457 160.888 34.0942 162.043C38.3518 163.104 47.5382 162.604 47.5382 162.604C50.8167 161.46 54.4528 158.579 56.2516 155.434C57.6158 153.059 57.8028 150.046 56.7467 147.516C56.2076 146.213 55.3769 145.075 54.4418 143.992Z" fill="#FFC957"/>
<path d="M26.9873 111.366C26.9873 111.366 42.6702 135.58 44.3755 162.466" stroke="#6AA5FE" stroke-miterlimit="10" stroke-linecap="round" stroke-linejoin="round"/>
<path d="M13.0206 144.025C13.2626 143.816 13.6147 143.706 14.0657 143.695C14.0987 143.695 14.1317 143.695 14.1648 143.695C15.6225 143.695 17.0857 144.625 18.5049 146.455C19.5886 147.846 20.5017 149.402 21.2883 151.184C20.7933 150.678 20.1992 150.205 19.5336 149.787C18.6204 149.215 17.6303 148.754 16.6731 148.308C15.925 147.962 15.1549 147.605 14.4288 147.192C13.8402 146.862 13.1911 146.439 12.85 145.823C12.542 145.273 12.5255 144.454 13.0206 144.025Z" fill="#6AA5FE"/>
<path d="M10.6059 154.279C10.7379 153.988 11.0074 153.735 11.409 153.531C11.4365 153.515 11.4695 153.504 11.497 153.488C12.8172 152.861 14.5335 153.075 16.6018 154.125C18.175 154.923 19.6713 155.934 21.14 157.21C20.4744 156.962 19.7373 156.792 18.9562 156.698C17.8835 156.572 16.7888 156.577 15.7327 156.583C14.9075 156.588 14.0604 156.594 13.2298 156.534C12.5587 156.484 11.7886 156.38 11.2165 155.973C10.7104 155.61 10.3418 154.879 10.6059 154.279Z" fill="#6AA5FE"/>
<path d="M13.9669 160.415C13.8954 160.212 13.9119 159.959 14.0164 159.668C14.0219 159.646 14.0329 159.624 14.0384 159.602C14.4015 158.672 15.3531 157.974 16.8769 157.523C18.032 157.182 19.2532 156.984 20.5844 156.929C20.1389 157.122 19.6878 157.38 19.2587 157.699C18.6646 158.139 18.1256 158.656 17.603 159.151C17.1959 159.541 16.7779 159.942 16.3378 160.3C15.9802 160.591 15.5512 160.899 15.0726 160.965C14.6435 161.026 14.1154 160.833 13.9669 160.415Z" fill="#6AA5FE"/>
<path d="M26.0084 162.598C26.0084 162.598 25.9644 152.987 14.2256 144.833" stroke="#2A294F" stroke-width="0.7798" stroke-miterlimit="10" stroke-linecap="round" stroke-linejoin="round"/>
<path d="M26.0084 162.598C26.0084 162.598 22.4054 154.879 12.6304 154.879" stroke="#2A294F" stroke-width="0.7798" stroke-miterlimit="10" stroke-linecap="round" stroke-linejoin="round"/>
<path d="M20.6891 157.028C20.6891 157.028 18.7968 156.891 14.8472 159.871" stroke="#2A294F" stroke-width="0.7798" stroke-miterlimit="10" stroke-linecap="round" stroke-linejoin="round"/>
<path d="M151.95 162.598H48.4459C45.5744 162.598 43.2476 160.272 43.2476 157.402V17.1216C43.2476 14.2515 45.5744 11.9258 48.4459 11.9258H151.95C154.821 11.9258 157.148 14.2515 157.148 17.1216V157.408C157.148 160.272 154.821 162.598 151.95 162.598Z" fill="#6AA5FE"/>
<path d="M43.2529 48.6316V157.408C43.2529 160.278 45.5798 162.604 48.4512 162.604H151.955C154.827 162.604 157.153 160.278 157.153 157.408V135.937L43.2529 48.6316Z" fill="#527EE9"/>
<path d="M148.407 155.648H51.9939C50.8222 155.648 49.8706 154.697 49.8706 153.526V20.9978C49.8706 19.8267 50.8222 18.8755 51.9939 18.8755H148.407C149.579 18.8755 150.531 19.8267 150.531 20.9978V153.526C150.531 154.697 149.579 155.648 148.407 155.648Z" fill="#F3F4F6"/>
<path d="M108.834 9.07764C108.839 8.93468 108.856 8.79723 108.856 8.64878C108.856 3.87085 104.978 -0.00537109 100.198 -0.00537109C95.4174 -0.00537109 91.5393 3.87085 91.5393 8.64878C91.5393 8.79173 91.5558 8.93468 91.5613 9.07764H78.8379V22.2678H121.557V9.07764H108.834Z" fill="#1A55B5"/>
<path d="M78.8433 9.07764V22.2678H121.557L78.8433 9.07764Z" fill="#2C6BC6"/>
<path d="M102.069 13.1364C104.547 12.1035 105.719 9.25764 104.686 6.78001C103.652 4.30238 100.805 3.13121 98.3262 4.16414C95.8474 5.19707 94.6756 8.04294 95.7091 10.5206C96.7425 12.9982 99.5898 14.1694 102.069 13.1364Z" fill="#527EE9"/>
<path d="M96.7651 5.21802C94.8673 7.11489 94.8673 10.1939 96.7651 12.0908C98.6629 13.9876 101.743 13.9876 103.641 12.0908L96.7651 5.21802Z" fill="#6AA5FE"/>
<path d="M121.563 22.2678H78.8433V23.175H121.563V22.2678Z" fill="#CDE1F9"/>
<path d="M77.6995 40.5327H61.4995V56.7249H77.6995V40.5327Z" stroke="#1A55B5" stroke-miterlimit="10"/>
<path d="M66.2412 49.4564L71.1975 53.3491L81.2695 43.6448" stroke="#F3F4F6" stroke-width="4" stroke-miterlimit="10"/>
<path d="M65.1411 48.3568L70.0974 52.2495L80.1694 42.5452" stroke="#FF746F" stroke-width="4" stroke-miterlimit="10"/>
<path d="M138.275 45.1291H85.4834C85.1369 45.1291 84.8618 44.8487 84.8618 44.5078C84.8618 44.1614 85.1424 43.8865 85.4834 43.8865H138.281C138.627 43.8865 138.902 44.1669 138.902 44.5078C138.902 44.8487 138.622 45.1291 138.275 45.1291Z" fill="#6AA5FE"/>
<path d="M138.275 47.8781H85.4834C85.1369 47.8781 84.8618 47.5977 84.8618 47.2568C84.8618 46.9104 85.1424 46.6355 85.4834 46.6355H138.281C138.627 46.6355 138.902 46.9159 138.902 47.2568C138.902 47.5977 138.622 47.8781 138.275 47.8781Z" fill="#6AA5FE"/>
<path d="M138.275 50.6274H85.4834C85.1369 50.6274 84.8618 50.347 84.8618 50.0061C84.8618 49.6597 85.1424 49.3848 85.4834 49.3848H138.281C138.627 49.3848 138.902 49.6652 138.902 50.0061C138.902 50.347 138.622 50.6274 138.275 50.6274Z" fill="#6AA5FE"/>
<path d="M138.275 53.3764H85.4834C85.1369 53.3764 84.8618 53.096 84.8618 52.7551C84.8618 52.4087 85.1424 52.1338 85.4834 52.1338H138.281C138.627 52.1338 138.902 52.4142 138.902 52.7551C138.902 53.096 138.622 53.3764 138.275 53.3764Z" fill="#6AA5FE"/>
<path d="M77.6995 66.6052H61.4995V82.7974H77.6995V66.6052Z" stroke="#1A55B5" stroke-miterlimit="10"/>
<path d="M66.2412 75.5289L71.1975 79.4161L81.2695 69.7173" stroke="#F3F4F6" stroke-width="4" stroke-miterlimit="10"/>
<path d="M65.1411 74.4293L70.0974 78.3165L80.1694 68.6177" stroke="#FF746F" stroke-width="4" stroke-miterlimit="10"/>
<path d="M138.275 71.2016H85.4834C85.1369 71.2016 84.8618 70.9212 84.8618 70.5803C84.8618 70.2339 85.1424 69.959 85.4834 69.959H138.281C138.627 69.959 138.902 70.2394 138.902 70.5803C138.902 70.9212 138.622 71.2016 138.275 71.2016Z" fill="#6AA5FE"/>
<path d="M138.275 73.9506H85.4834C85.1369 73.9506 84.8618 73.6702 84.8618 73.3293C84.8618 72.9829 85.1424 72.708 85.4834 72.708H138.281C138.627 72.708 138.902 72.9884 138.902 73.3293C138.902 73.6702 138.622 73.9506 138.275 73.9506Z" fill="#6AA5FE"/>
<path d="M138.275 76.6999H85.4834C85.1369 76.6999 84.8618 76.4195 84.8618 76.0786C84.8618 75.7322 85.1424 75.4573 85.4834 75.4573H138.281C138.627 75.4573 138.902 75.7377 138.902 76.0786C138.902 76.4195 138.622 76.6999 138.275 76.6999Z" fill="#6AA5FE"/>
<path d="M138.275 79.4489H85.4834C85.1369 79.4489 84.8618 79.1685 84.8618 78.8276C84.8618 78.4812 85.1424 78.2063 85.4834 78.2063H138.281C138.627 78.2063 138.902 78.4867 138.902 78.8276C138.902 79.1685 138.622 79.4489 138.275 79.4489Z" fill="#6AA5FE"/>
<path d="M77.6995 92.6775H61.4995V108.87H77.6995V92.6775Z" stroke="#1A55B5" stroke-miterlimit="10"/>
<path d="M66.2412 101.601L71.1975 105.488L81.2695 95.7896" stroke="#F3F4F6" stroke-width="4" stroke-miterlimit="10"/>
<path d="M65.1411 100.502L70.0974 104.389L80.1694 94.6899" stroke="#FF746F" stroke-width="4" stroke-miterlimit="10"/>
<path d="M138.275 97.2738H85.4834C85.1369 97.2738 84.8618 96.9934 84.8618 96.6525C84.8618 96.3062 85.1424 96.0312 85.4834 96.0312H138.281C138.627 96.0312 138.902 96.3117 138.902 96.6525C138.902 96.9934 138.622 97.2738 138.275 97.2738Z" fill="#6AA5FE"/>
<path d="M138.275 100.023H85.4834C85.1369 100.023 84.8618 99.7424 84.8618 99.4016C84.8618 99.0552 85.1424 98.7803 85.4834 98.7803H138.281C138.627 98.7803 138.902 99.0607 138.902 99.4016C138.902 99.7424 138.622 100.023 138.275 100.023Z" fill="#6AA5FE"/>
<path d="M138.275 102.772H85.4834C85.1369 102.772 84.8618 102.492 84.8618 102.151C84.8618 101.804 85.1424 101.53 85.4834 101.53H138.281C138.627 101.53 138.902 101.81 138.902 102.151C138.902 102.492 138.622 102.772 138.275 102.772Z" fill="#6AA5FE"/>
<path d="M138.275 105.521H85.4834C85.1369 105.521 84.8618 105.241 84.8618 104.9C84.8618 104.553 85.1424 104.279 85.4834 104.279H138.281C138.627 104.279 138.902 104.559 138.902 104.9C138.902 105.241 138.622 105.521 138.275 105.521Z" fill="#6AA5FE"/>
<path d="M77.6995 118.75H61.4995V134.942H77.6995V118.75Z" stroke="#1A55B5" stroke-miterlimit="10"/>
<path d="M66.2412 127.674L71.1975 131.561L81.2695 121.862" stroke="#F3F4F6" stroke-width="4" stroke-miterlimit="10"/>
<path d="M65.1411 126.574L70.0974 130.461L80.1694 120.762" stroke="#FF746F" stroke-width="4" stroke-miterlimit="10"/>
<path d="M138.275 123.346H85.4834C85.1369 123.346 84.8618 123.066 84.8618 122.725C84.8618 122.379 85.1424 122.104 85.4834 122.104H138.281C138.627 122.104 138.902 122.384 138.902 122.725C138.902 123.066 138.622 123.346 138.275 123.346Z" fill="#6AA5FE"/>
<path d="M138.275 126.095H85.4834C85.1369 126.095 84.8618 125.815 84.8618 125.474C84.8618 125.128 85.1424 124.853 85.4834 124.853H138.281C138.627 124.853 138.902 125.133 138.902 125.474C138.902 125.815 138.622 126.095 138.275 126.095Z" fill="#6AA5FE"/>
<path d="M138.275 128.845H85.4834C85.1369 128.845 84.8618 128.564 84.8618 128.223C84.8618 127.877 85.1424 127.602 85.4834 127.602H138.281C138.627 127.602 138.902 127.882 138.902 128.223C138.902 128.564 138.622 128.845 138.275 128.845Z" fill="#6AA5FE"/>
<path d="M138.275 131.594H85.4834C85.1369 131.594 84.8618 131.313 84.8618 130.972C84.8618 130.626 85.1424 130.351 85.4834 130.351H138.281C138.627 130.351 138.902 130.631 138.902 130.972C138.902 131.313 138.622 131.594 138.275 131.594Z" fill="#6AA5FE"/>
<path d="M161.78 54.421C161.444 54.6794 158.391 56.4828 158.391 56.4828L156.224 53.7118L156.868 50.5503L161.532 50.8417L162.347 53.2004C162.539 53.7557 162.193 54.1021 161.78 54.421Z" fill="#FE9280"/>
<path d="M161.526 50.8363L162.231 52.9036L160.08 53.7668C159.673 53.9428 159.211 53.9758 158.782 53.8603C157.835 53.6074 157.214 52.6892 157.335 51.716L157.472 50.5779L161.526 50.8363Z" fill="#E86767"/>
<path d="M160.471 53.602L162.335 53.8714L163.359 52.123C163.557 51.8096 163.463 51.3917 163.15 51.1883C162.836 50.9904 162.418 51.0838 162.214 51.3972L160.471 53.602Z" fill="#FF746F"/>
<path d="M159.063 61.0796L155.217 62.0528L153.842 73.1811L158.342 73.3625L159.063 61.0796Z" fill="white"/>
<path d="M209.615 70.1129L202.893 69.2662L204.433 57.0547L211.155 57.9014C214.527 58.3248 216.92 61.4038 216.497 64.7796C216.068 68.15 212.987 70.5363 209.615 70.1129Z" fill="#FE9280"/>
<path opacity="0.2" d="M209.967 67.331L203.245 66.4843L202.893 69.2664L209.615 70.1131C212.987 70.5365 216.068 68.1503 216.497 64.7744C216.557 64.296 216.557 63.8232 216.513 63.3613C215.539 65.9895 212.861 67.6994 209.967 67.331Z" fill="#777470"/>
<path d="M202.074 69.1673L130.766 59.9743L132.301 47.7573L203.614 56.9503L202.074 69.1673Z" fill="#FFC957"/>
<path d="M118.059 52.1669L130.766 59.9743L132.301 47.7573L118.059 52.1669Z" fill="#FFF4DD"/>
<path opacity="0.2" d="M118.059 52.1667L130.766 59.9742L131.14 56.9832L118.059 52.1667Z" fill="#777470"/>
<path d="M122.3 50.8584L118.059 52.167L121.844 54.4927L122.3 50.8584Z" fill="#2A294F"/>
<path d="M209.521 57.695L203.621 56.9526L202.082 69.1671L207.982 69.9094L209.521 57.695Z" fill="#D3EAF5"/>
<path d="M209.59 57.1752L207.571 56.9211L205.901 70.183L207.92 70.4371L209.59 57.1752Z" fill="#D3EAF5"/>
<path opacity="0.2" d="M205.957 69.6565L130.766 59.9742L131.14 56.9832L206.337 66.6655L205.957 69.6565Z" fill="#777470"/>
<path opacity="0.05" d="M207.197 60.6733L132 50.9855L132.374 48L207.571 57.6823L207.197 60.6733Z" fill="#777470"/>
<path opacity="0.15" d="M208.428 66.381L206.408 66.127L205.898 70.1802L207.917 70.4343L208.428 66.381Z" fill="#777470"/>
<path d="M178.678 93.8981L179.69 91.2975L183.084 91.0336C183.711 90.9676 184.262 91.347 184.322 91.8803C184.377 92.4136 183.921 92.9029 183.293 92.9689L178.678 93.8981Z" fill="#E86767"/>
<path d="M176.929 91.3085L178.678 93.8981L182.006 93.2274L178.299 87.6797L177.578 88.1525C176.528 88.8453 176.236 90.2583 176.929 91.3085Z" fill="#FF746F"/>
<path d="M180.208 49.5937C176.747 44.5574 168.04 45.899 168.265 53.9703C168.265 53.9923 168.265 54.0198 168.271 54.0418C168.249 55.0644 168.282 56.1091 168.018 57.0713C167.88 57.5606 167.649 58.0115 167.292 58.3359C166.939 58.6658 166.483 58.8637 166.004 58.9627C165.52 59.0726 164.992 59.0946 164.453 59.2046C163.908 59.3145 163.38 59.5125 162.902 59.7984C161.939 60.3592 161.153 61.2774 160.795 62.3605C160.107 64.5158 160.658 67.012 162.28 68.634C162.687 69.0298 163.16 69.3707 163.683 69.6126C164.2 69.8656 164.789 69.959 165.267 70.058C166.274 70.2779 167.292 70.5693 168.326 70.7728L168.353 70.6848C167.396 70.2449 166.455 69.7831 165.443 69.4312C164.915 69.2443 164.464 69.1398 164.052 68.8869C163.644 68.645 163.265 68.3481 162.946 67.9907C162.308 67.2814 161.84 66.4072 161.576 65.4725C161.312 64.5378 161.257 63.5317 161.521 62.6025C161.78 61.6788 162.401 60.876 163.226 60.3427C163.633 60.0733 164.096 59.8809 164.574 59.7599C165.058 59.6389 165.586 59.5895 166.12 59.4465C166.653 59.309 167.182 59.0396 167.572 58.6218C167.968 58.2094 168.194 57.6761 168.304 57.1483C168.381 56.7744 168.419 56.395 168.43 56.0211C168.524 57.5276 168.392 59.0561 166.846 59.6334C165.955 59.9688 165.086 59.9688 164.255 60.5186C163.441 61.063 162.797 61.8657 162.484 62.7894C161.51 65.643 164.041 69.3377 167.016 69.6566C168.249 69.7886 169.481 70.0855 170.697 70.3054C171.038 70.3659 175.823 71.3446 175.862 71.2346L181.401 54.8445L180.208 49.5937Z" fill="#1A55B5"/>
<path d="M179.944 90.1374L191.176 82.3024L189.609 77.9644L178.299 87.6742L179.944 90.1374Z" fill="white"/>
<path d="M188.173 81.2302C188.706 82.3519 190.049 82.8357 191.171 82.3024C192.293 81.7691 192.777 80.4275 192.243 79.3059C191.71 78.1842 190.368 77.7004 189.246 78.2337C188.123 78.7615 187.645 80.1031 188.173 81.2302Z" fill="white"/>
<path d="M188.734 82.0385L191.936 78.8716L182.689 68.4745C181.638 67.056 179.575 66.902 178.321 68.1391C177.067 69.3762 177.204 72.8235 178.607 73.8902L188.734 82.0385Z" fill="white"/>
<path d="M173.091 67.6713L176.878 67.9919L177.55 60.0647L173.763 59.744L173.091 67.6713Z" fill="#FF746F"/>
<path d="M155.85 71.4986C154.607 71.5811 153.672 72.6532 153.754 73.8958C153.837 75.1384 154.909 76.0731 156.152 75.9906C157.396 75.9082 158.331 74.836 158.248 73.5934C158.166 72.3508 157.093 71.4107 155.85 71.4986Z" fill="white"/>
<path d="M154.431 71.8284L156.714 75.8806L170.658 71.8284C172.369 71.394 173.293 68.1611 172.622 66.5336C171.951 64.9062 169.987 64.2464 168.469 65.1481L154.431 71.8284Z" fill="white"/>
<path d="M175.774 87.4597L182.832 70.1514C183.189 68.7328 182.232 67.3253 180.785 67.1274L170.653 64.8291C169.206 64.6312 167.908 65.7363 167.875 67.1989L164.409 86.0741L175.774 87.4597Z" fill="white"/>
<path d="M174.635 50.5173C173.464 51.9963 171.362 52.6176 170.867 53.9757L170.763 54.6025C170.763 54.63 170.763 54.6575 170.763 54.6905L170.752 54.6685L170.433 56.5653C170.026 58.968 171.648 61.2443 174.052 61.6512C176.456 62.058 178.733 60.4361 179.14 58.0334L179.504 55.8946C179.245 53.7283 175.273 53.5578 174.635 50.5173Z" fill="#FF746F"/>
<path d="M178.673 57.0274C178.579 57.5827 178.954 58.1161 179.515 58.2095C180.07 58.303 180.604 57.9291 180.697 57.3683C180.791 56.813 180.417 56.2797 179.856 56.1862C179.3 56.0927 178.772 56.4666 178.673 57.0274Z" fill="#FF746F"/>
<path d="M169.399 86.6845L174.476 99.2149L169.624 157.754H165.895L161.505 98.852L164.404 86.0742L169.399 86.6845Z" fill="#1A55B5"/>
<path d="M169.398 86.6846V99.2149L192.254 157.754H195.054L182.826 97.0047L175.774 87.4598L169.398 86.6846Z" fill="#527EE9"/>
<path d="M167.985 160.811H166.422V157.754H168.447L167.985 160.811Z" fill="#FF746F"/>
<path d="M166.373 160.118L167.286 160.52L168.128 160.118L168.892 162.598H161.846L164.492 161.361L166.373 160.118Z" fill="#2A294F"/>
<path d="M194.097 160.811H195.654L194.735 157.754H192.711L194.097 160.811Z" fill="#FF746F"/>
<path d="M195.709 160.118L194.796 160.52L193.949 160.118L193.189 162.598H200.236L197.59 161.361L195.709 160.118Z" fill="#2A294F"/>
<path d="M171.269 74.2696C171.269 76.0346 169.839 77.4641 168.073 77.4641C166.307 77.4641 164.877 76.0346 164.877 74.2696C164.877 72.5047 166.307 71.0752 168.073 71.0752C169.839 71.0752 171.269 72.5047 171.269 74.2696Z" fill="white"/>
<path d="M170.944 64.9172L171.346 71.779L177.281 65.7365L170.944 64.9172Z" fill="#FF746F"/>
<path d="M183.866 51.0509C183.36 50.4021 182.738 49.8798 182.05 49.5224C180.934 48.9341 179.674 49.0001 178.651 48.1204L179.449 56.1752C180.917 55.7573 180.829 58.9188 179.135 58.0446C179.135 58.0446 175.774 59.4851 174.498 62.6301C173.623 64.7414 173.475 67.2101 173.706 68.6176C174.118 71.1413 176.258 72.4499 178.695 71.7076C180.147 71.2622 181.33 70.1681 182.172 68.898C185.114 64.4555 187.073 57.1539 184.559 52.1395C184.355 51.7437 184.124 51.3808 183.866 51.0509Z" fill="#1A55B5"/>
<path d="M156.824 50.0776L156.741 50.589C156.571 51.6556 157.297 52.6618 158.364 52.8377L159.2 52.9697C160.267 53.1401 161.274 52.4144 161.45 51.3477L161.532 50.8364L156.824 50.0776Z" fill="#FF746F"/>
<path d="M174.767 56.9668C174.503 56.8018 172.765 56.4775 172.556 56.5929C172.33 56.7194 172.237 57.0163 172.297 57.2692C172.358 57.5221 172.545 57.7255 172.754 57.874C173.238 58.2039 173.898 58.2589 174.432 58.0114C174.635 57.918 174.822 57.775 174.91 57.5661C175.004 57.3627 174.96 57.0877 174.767 56.9668Z" fill="white"/>
<path d="M0.478516 162.598H266.785" stroke="#2A294F" stroke-width="0.7798" stroke-miterlimit="10" stroke-linecap="round" stroke-linejoin="round"/>
</g>
<defs>
<clipPath id="clip0">
<rect width="267" height="164" fill="white"/>
</clipPath>
</defs>
</svg>
