<svg width="11" height="15" viewBox="0 0 11 15" fill="none" xmlns="http://www.w3.org/2000/svg">
<path fill-rule="evenodd" clip-rule="evenodd" d="M2.41462 3.57643L2.83202 3.42913C3.31962 3.25706 3.66656 2.7927 3.66656 2.25C3.66656 1.55964 3.10605 1 2.41462 1C1.7232 1 1.16268 1.55964 1.16268 2.25C1.16268 2.7927 1.50962 3.25706 1.99722 3.42913L2.41462 3.57643ZM5.40171 10.9228L4.99577 11.0992C4.55068 11.2927 4.24265 11.7347 4.24265 12.2463C4.24265 12.9367 4.80316 13.4963 5.49459 13.4963C6.18602 13.4963 6.74653 12.9367 6.74653 12.2463C6.74653 11.6734 6.35964 11.1882 5.83064 11.0416L5.40171 10.9228ZM8.57465 3.57643L8.99204 3.4291C9.4796 3.257 9.82649 2.79266 9.82649 2.25C9.82649 1.55964 9.26598 1 8.57455 1C7.88313 1 7.32262 1.55964 7.32262 2.25C7.32262 2.79273 7.6696 3.25711 8.15724 3.42916L8.57465 3.57643ZM3.16579 4.37197V5.30614C3.16579 5.73363 3.38459 6.13148 3.74587 6.36089L5.39275 7.40668L7.12835 6.54629C7.55421 6.33517 7.82355 5.90142 7.82355 5.42669V4.37203C6.94822 4.06319 6.32106 3.22972 6.32106 2.25C6.32106 1.00736 7.32999 0 8.57455 0C9.81912 0 10.828 1.00736 10.828 2.25C10.828 3.22961 10.201 4.06299 9.32587 4.37192V5.42669C9.32587 6.47109 8.73334 7.42535 7.79644 7.8898L6.09839 8.73158V10.078C7.04976 10.3415 7.74808 11.2125 7.74808 12.2463C7.74808 13.489 6.73916 14.4963 5.49459 14.4963C4.25002 14.4963 3.2411 13.489 3.2411 12.2463C3.2411 11.3226 3.79864 10.5289 4.59606 10.1823V8.67844L2.93964 7.6266C2.14483 7.12188 1.66346 6.24662 1.66346 5.30614V4.37197C0.78821 4.06309 0.161133 3.22966 0.161133 2.25C0.161133 1.00736 1.17005 0 2.41462 0C3.65919 0 4.66811 1.00736 4.66811 2.25C4.66811 3.22966 4.04104 4.06309 3.16579 4.37197Z" fill="#999999"/>
</svg>
