<svg width="267" height="233" viewBox="0 0 267 233" fill="none" xmlns="http://www.w3.org/2000/svg">
<path d="M50.8311 192.203V205H49.1348V199.7C48.5195 199.876 47.96 199.999 47.4561 200.069C46.9521 200.134 46.3779 200.166 45.7334 200.166C44.2744 200.166 43.1904 199.85 42.4814 199.217C41.7725 198.584 41.4092 197.614 41.3916 196.308V192.203H43.0879V196.264C43.0938 197.154 43.2959 197.796 43.6943 198.188C44.0986 198.581 44.7783 198.777 45.7334 198.777C46.8467 198.777 47.9805 198.619 49.1348 198.303V192.203H50.8311ZM60.6924 196.809H57.502V205H55.876V196.809H52.7471V195.49H60.6924V196.809ZM61.4746 200.157C61.4746 199.226 61.6562 198.388 62.0195 197.644C62.3887 196.899 62.8984 196.325 63.5488 195.921C64.2051 195.517 64.9521 195.314 65.79 195.314C67.085 195.314 68.1309 195.763 68.9277 196.659C69.7305 197.556 70.1318 198.748 70.1318 200.236V200.351C70.1318 201.276 69.9531 202.108 69.5957 202.847C69.2441 203.579 68.7373 204.15 68.0752 204.561C67.4189 204.971 66.6631 205.176 65.8076 205.176C64.5186 205.176 63.4727 204.728 62.6699 203.831C61.873 202.935 61.4746 201.748 61.4746 200.271V200.157ZM63.1094 200.351C63.1094 201.405 63.3525 202.252 63.8389 202.891C64.3311 203.529 64.9873 203.849 65.8076 203.849C66.6338 203.849 67.29 203.526 67.7764 202.882C68.2627 202.231 68.5059 201.323 68.5059 200.157C68.5059 199.114 68.2568 198.271 67.7588 197.626C67.2666 196.976 66.6104 196.65 65.79 196.65C64.9873 196.65 64.3398 196.97 63.8477 197.608C63.3555 198.247 63.1094 199.161 63.1094 200.351ZM75.5547 200.228H71.2656V198.9H75.5547V200.228ZM84.2119 196.809H81.0215V205H79.3955V196.809H76.2666V195.49H84.2119V196.809ZM84.9941 200.157C84.9941 199.226 85.1758 198.388 85.5391 197.644C85.9082 196.899 86.418 196.325 87.0684 195.921C87.7246 195.517 88.4717 195.314 89.3096 195.314C90.6045 195.314 91.6504 195.763 92.4473 196.659C93.25 197.556 93.6514 198.748 93.6514 200.236V200.351C93.6514 201.276 93.4727 202.108 93.1152 202.847C92.7637 203.579 92.2568 204.15 91.5947 204.561C90.9385 204.971 90.1826 205.176 89.3271 205.176C88.0381 205.176 86.9922 204.728 86.1895 203.831C85.3926 202.935 84.9941 201.748 84.9941 200.271V200.157ZM86.6289 200.351C86.6289 201.405 86.8721 202.252 87.3584 202.891C87.8506 203.529 88.5068 203.849 89.3271 203.849C90.1533 203.849 90.8096 203.526 91.2959 202.882C91.7822 202.231 92.0254 201.323 92.0254 200.157C92.0254 199.114 91.7764 198.271 91.2783 197.626C90.7861 196.976 90.1299 196.65 89.3096 196.65C88.5068 196.65 87.8594 196.97 87.3672 197.608C86.875 198.247 86.6289 199.161 86.6289 200.351ZM107.934 205H106.308V196.835H101.931V205H100.296V195.49H107.934V205ZM110.113 200.157C110.113 199.226 110.295 198.388 110.658 197.644C111.027 196.899 111.537 196.325 112.188 195.921C112.844 195.517 113.591 195.314 114.429 195.314C115.724 195.314 116.77 195.763 117.566 196.659C118.369 197.556 118.771 198.748 118.771 200.236V200.351C118.771 201.276 118.592 202.108 118.234 202.847C117.883 203.579 117.376 204.15 116.714 204.561C116.058 204.971 115.302 205.176 114.446 205.176C113.157 205.176 112.111 204.728 111.309 203.831C110.512 202.935 110.113 201.748 110.113 200.271V200.157ZM111.748 200.351C111.748 201.405 111.991 202.252 112.478 202.891C112.97 203.529 113.626 203.849 114.446 203.849C115.272 203.849 115.929 203.526 116.415 202.882C116.901 202.231 117.145 201.323 117.145 200.157C117.145 199.114 116.896 198.271 116.397 197.626C115.905 196.976 115.249 196.65 114.429 196.65C113.626 196.65 112.979 196.97 112.486 197.608C111.994 198.247 111.748 199.161 111.748 200.351ZM122.585 195.49V203.673H126.065V195.49H127.691V203.673H131.163V195.49H132.798V205H120.95V195.49H122.585ZM143.16 195.49V205H141.525V196.835H138.291L138.098 200.395C137.992 202.029 137.717 203.198 137.271 203.901C136.832 204.604 136.132 204.971 135.171 205H134.521V203.567L134.986 203.532C135.514 203.474 135.892 203.169 136.12 202.618C136.349 202.067 136.495 201.048 136.56 199.56L136.735 195.49H143.16ZM145.34 200.157C145.34 199.226 145.521 198.388 145.885 197.644C146.254 196.899 146.764 196.325 147.414 195.921C148.07 195.517 148.817 195.314 149.655 195.314C150.95 195.314 151.996 195.763 152.793 196.659C153.596 197.556 153.997 198.748 153.997 200.236V200.351C153.997 201.276 153.818 202.108 153.461 202.847C153.109 203.579 152.603 204.15 151.94 204.561C151.284 204.971 150.528 205.176 149.673 205.176C148.384 205.176 147.338 204.728 146.535 203.831C145.738 202.935 145.34 201.748 145.34 200.271V200.157ZM146.975 200.351C146.975 201.405 147.218 202.252 147.704 202.891C148.196 203.529 148.853 203.849 149.673 203.849C150.499 203.849 151.155 203.526 151.642 202.882C152.128 202.231 152.371 201.323 152.371 200.157C152.371 199.114 152.122 198.271 151.624 197.626C151.132 196.976 150.476 196.65 149.655 196.65C148.853 196.65 148.205 196.97 147.713 197.608C147.221 198.247 146.975 199.161 146.975 200.351ZM168.271 205H166.645V200.939H162.276V205H160.642V195.49H162.276V199.612H166.645V195.49H168.271V205ZM174.836 205.176C173.547 205.176 172.498 204.754 171.689 203.91C170.881 203.061 170.477 201.927 170.477 200.509V200.21C170.477 199.267 170.655 198.426 171.013 197.688C171.376 196.943 171.88 196.363 172.524 195.947C173.175 195.525 173.878 195.314 174.634 195.314C175.87 195.314 176.831 195.722 177.517 196.536C178.202 197.351 178.545 198.517 178.545 200.034V200.711H172.103C172.126 201.648 172.398 202.407 172.92 202.987C173.447 203.562 174.115 203.849 174.924 203.849C175.498 203.849 175.984 203.731 176.383 203.497C176.781 203.263 177.13 202.952 177.429 202.565L178.422 203.339C177.625 204.563 176.43 205.176 174.836 205.176ZM174.634 196.65C173.978 196.65 173.427 196.891 172.981 197.371C172.536 197.846 172.261 198.514 172.155 199.375H176.919V199.252C176.872 198.426 176.649 197.787 176.251 197.336C175.853 196.879 175.313 196.65 174.634 196.65ZM191.966 196.809H188.775V205H187.149V196.809H184.021V195.49H191.966V196.809ZM199.278 205C199.185 204.812 199.108 204.479 199.05 203.998C198.294 204.783 197.392 205.176 196.343 205.176C195.405 205.176 194.635 204.912 194.031 204.385C193.434 203.852 193.135 203.178 193.135 202.363C193.135 201.373 193.51 200.605 194.26 200.061C195.016 199.51 196.076 199.234 197.441 199.234H199.023V198.487C199.023 197.919 198.854 197.468 198.514 197.134C198.174 196.794 197.673 196.624 197.011 196.624C196.431 196.624 195.944 196.771 195.552 197.063C195.159 197.356 194.963 197.711 194.963 198.127H193.328C193.328 197.652 193.495 197.195 193.829 196.756C194.169 196.311 194.626 195.959 195.2 195.701C195.78 195.443 196.416 195.314 197.107 195.314C198.203 195.314 199.062 195.59 199.683 196.141C200.304 196.686 200.626 197.438 200.649 198.399V202.776C200.649 203.649 200.761 204.344 200.983 204.859V205H199.278ZM196.58 203.761C197.09 203.761 197.573 203.629 198.03 203.365C198.487 203.102 198.818 202.759 199.023 202.337V200.386H197.749C195.757 200.386 194.761 200.969 194.761 202.135C194.761 202.645 194.931 203.043 195.271 203.33C195.61 203.617 196.047 203.761 196.58 203.761ZM206.16 200.948H204.974V205H203.339V195.49H204.974V199.516H206.037L209.236 195.49H211.205L207.443 200.061L211.521 205H209.456L206.16 200.948ZM212.954 204.147C212.954 203.866 213.036 203.632 213.2 203.444C213.37 203.257 213.622 203.163 213.956 203.163C214.29 203.163 214.542 203.257 214.712 203.444C214.888 203.632 214.976 203.866 214.976 204.147C214.976 204.417 214.888 204.643 214.712 204.824C214.542 205.006 214.29 205.097 213.956 205.097C213.622 205.097 213.37 205.006 213.2 204.824C213.036 204.643 212.954 204.417 212.954 204.147ZM217.7 204.147C217.7 203.866 217.782 203.632 217.946 203.444C218.116 203.257 218.368 203.163 218.702 203.163C219.036 203.163 219.288 203.257 219.458 203.444C219.634 203.632 219.722 203.866 219.722 204.147C219.722 204.417 219.634 204.643 219.458 204.824C219.288 205.006 219.036 205.097 218.702 205.097C218.368 205.097 218.116 205.006 217.946 204.824C217.782 204.643 217.7 204.417 217.7 204.147ZM222.446 204.147C222.446 203.866 222.528 203.632 222.692 203.444C222.862 203.257 223.114 203.163 223.448 203.163C223.782 203.163 224.034 203.257 224.204 203.444C224.38 203.632 224.468 203.866 224.468 204.147C224.468 204.417 224.38 204.643 224.204 204.824C224.034 205.006 223.782 205.097 223.448 205.097C223.114 205.097 222.862 205.006 222.692 204.824C222.528 204.643 222.446 204.417 222.446 204.147Z" fill="black"/>
<path d="M41.2559 230H39.9365V221.127H35.0283V230H33.7158V220.047H41.2559V230ZM43.1152 226.233C43.1152 225.509 43.2565 224.857 43.5391 224.278C43.8262 223.7 44.2227 223.253 44.7285 222.938C45.2389 222.624 45.82 222.467 46.4717 222.467C47.4788 222.467 48.2923 222.815 48.9121 223.513C49.5365 224.21 49.8486 225.137 49.8486 226.295V226.384C49.8486 227.104 49.7096 227.751 49.4316 228.325C49.1582 228.895 48.764 229.339 48.249 229.658C47.7386 229.977 47.1507 230.137 46.4854 230.137C45.4827 230.137 44.6693 229.788 44.0449 229.091C43.4251 228.394 43.1152 227.471 43.1152 226.322V226.233ZM44.3867 226.384C44.3867 227.204 44.5758 227.863 44.9541 228.359C45.3369 228.856 45.8473 229.104 46.4854 229.104C47.1279 229.104 47.6383 228.854 48.0166 228.353C48.3949 227.847 48.584 227.14 48.584 226.233C48.584 225.422 48.3903 224.766 48.0029 224.265C47.6201 223.759 47.1097 223.506 46.4717 223.506C45.8473 223.506 45.3438 223.754 44.9609 224.251C44.5781 224.748 44.3867 225.459 44.3867 226.384ZM57.4844 230H56.2197V223.649H52.8154V230H51.5439V222.604H57.4844V230ZM65.7627 226.384C65.7627 227.509 65.5052 228.416 64.9902 229.104C64.4753 229.793 63.778 230.137 62.8984 230.137C62.0007 230.137 61.2943 229.852 60.7793 229.282V232.844H59.5146V222.604H60.6699L60.7314 223.424C61.2464 222.786 61.9619 222.467 62.8779 222.467C63.7666 222.467 64.4684 222.802 64.9834 223.472C65.5029 224.142 65.7627 225.074 65.7627 226.268V226.384ZM64.498 226.24C64.498 225.406 64.3203 224.748 63.9648 224.265C63.6094 223.782 63.1217 223.54 62.502 223.54C61.7363 223.54 61.1621 223.88 60.7793 224.559V228.093C61.1576 228.767 61.7363 229.104 62.5156 229.104C63.1217 229.104 63.6025 228.865 63.958 228.387C64.318 227.904 64.498 227.188 64.498 226.24ZM67.041 226.233C67.041 225.509 67.1823 224.857 67.4648 224.278C67.752 223.7 68.1484 223.253 68.6543 222.938C69.1647 222.624 69.7458 222.467 70.3975 222.467C71.4046 222.467 72.2181 222.815 72.8379 223.513C73.4622 224.21 73.7744 225.137 73.7744 226.295V226.384C73.7744 227.104 73.6354 227.751 73.3574 228.325C73.084 228.895 72.6898 229.339 72.1748 229.658C71.6644 229.977 71.0765 230.137 70.4111 230.137C69.4085 230.137 68.5951 229.788 67.9707 229.091C67.3509 228.394 67.041 227.471 67.041 226.322V226.233ZM68.3125 226.384C68.3125 227.204 68.5016 227.863 68.8799 228.359C69.2627 228.856 69.7731 229.104 70.4111 229.104C71.0537 229.104 71.5641 228.854 71.9424 228.353C72.3206 227.847 72.5098 227.14 72.5098 226.233C72.5098 225.422 72.3161 224.766 71.9287 224.265C71.5459 223.759 71.0355 223.506 70.3975 223.506C69.7731 223.506 69.2695 223.754 68.8867 224.251C68.5039 224.748 68.3125 225.459 68.3125 226.384ZM78.6074 223.027C79.5371 223.027 80.2799 223.34 80.8359 223.964C81.3965 224.584 81.6768 225.402 81.6768 226.418V226.534C81.6768 227.231 81.5423 227.856 81.2734 228.407C81.0046 228.954 80.6172 229.38 80.1113 229.686C79.61 229.986 79.0312 230.137 78.375 230.137C77.3815 230.137 76.5817 229.806 75.9756 229.146C75.3695 228.48 75.0664 227.589 75.0664 226.473V225.857C75.0664 224.303 75.3535 223.068 75.9277 222.152C76.5065 221.236 77.3587 220.678 78.4844 220.478C79.1224 220.364 79.5531 220.225 79.7764 220.061C79.9997 219.896 80.1113 219.671 80.1113 219.384H81.1504C81.1504 219.953 81.0205 220.398 80.7607 220.717C80.5055 221.036 80.0954 221.261 79.5303 221.394L78.5869 221.605C77.835 221.783 77.2699 222.084 76.8916 222.508C76.5179 222.927 76.2741 223.488 76.1602 224.189C76.8301 223.415 77.6458 223.027 78.6074 223.027ZM78.3613 224.066C77.7415 224.066 77.2493 224.276 76.8848 224.695C76.5202 225.11 76.3379 225.687 76.3379 226.425V226.534C76.3379 227.327 76.5202 227.956 76.8848 228.421C77.2539 228.881 77.7507 229.111 78.375 229.111C79.0039 229.111 79.5007 228.879 79.8652 228.414C80.2298 227.949 80.4121 227.27 80.4121 226.377C80.4121 225.68 80.2275 225.121 79.8584 224.702C79.4938 224.278 78.9948 224.066 78.3613 224.066ZM85.5186 228.147L87.2412 222.604H88.5947L85.6211 231.142C85.1608 232.372 84.4294 232.987 83.4268 232.987L83.1875 232.967L82.7158 232.878V231.853L83.0576 231.88C83.486 231.88 83.8187 231.793 84.0557 231.62C84.2972 231.447 84.4954 231.13 84.6504 230.67L84.9307 229.918L82.292 222.604H83.6729L85.5186 228.147ZM94.5146 222.604H95.7793V230H94.5146V224.606L91.1035 230H89.8389V222.604H91.1035V228.004L94.5146 222.604ZM94.8564 219.91C94.8564 220.462 94.6673 220.906 94.2891 221.243C93.9154 221.576 93.4232 221.742 92.8125 221.742C92.2018 221.742 91.7074 221.574 91.3291 221.236C90.9508 220.899 90.7617 220.457 90.7617 219.91H91.7939C91.7939 220.229 91.8805 220.48 92.0537 220.662C92.2269 220.84 92.4798 220.929 92.8125 220.929C93.1315 220.929 93.3799 220.84 93.5576 220.662C93.7399 220.484 93.8311 220.234 93.8311 219.91H94.8564ZM103.306 223.629H100.824V230H99.5596V223.629H97.126V222.604H103.306V223.629ZM107.059 230.137C106.056 230.137 105.24 229.809 104.611 229.152C103.982 228.492 103.668 227.61 103.668 226.507V226.274C103.668 225.541 103.807 224.887 104.085 224.312C104.368 223.734 104.759 223.283 105.261 222.959C105.767 222.631 106.313 222.467 106.901 222.467C107.863 222.467 108.61 222.784 109.144 223.417C109.677 224.05 109.943 224.957 109.943 226.138V226.664H104.933C104.951 227.393 105.163 227.983 105.568 228.435C105.979 228.881 106.498 229.104 107.127 229.104C107.574 229.104 107.952 229.013 108.262 228.831C108.572 228.649 108.843 228.407 109.075 228.106L109.848 228.708C109.228 229.66 108.298 230.137 107.059 230.137ZM106.901 223.506C106.391 223.506 105.963 223.693 105.616 224.066C105.27 224.436 105.056 224.955 104.974 225.625H108.679V225.529C108.642 224.887 108.469 224.39 108.159 224.039C107.849 223.684 107.43 223.506 106.901 223.506ZM185.959 230.137C184.956 230.137 184.141 229.809 183.512 229.152C182.883 228.492 182.568 227.61 182.568 226.507V226.274C182.568 225.541 182.707 224.887 182.985 224.312C183.268 223.734 183.66 223.283 184.161 222.959C184.667 222.631 185.214 222.467 185.802 222.467C186.763 222.467 187.511 222.784 188.044 223.417C188.577 224.05 188.844 224.957 188.844 226.138V226.664H183.833C183.851 227.393 184.063 227.983 184.469 228.435C184.879 228.881 185.398 229.104 186.027 229.104C186.474 229.104 186.852 229.013 187.162 228.831C187.472 228.649 187.743 228.407 187.976 228.106L188.748 228.708C188.128 229.66 187.199 230.137 185.959 230.137ZM185.802 223.506C185.291 223.506 184.863 223.693 184.517 224.066C184.17 224.436 183.956 224.955 183.874 225.625H187.579V225.529C187.543 224.887 187.369 224.39 187.06 224.039C186.75 223.684 186.33 223.506 185.802 223.506ZM191.619 222.604V228.968H194.326V222.604H195.591V228.968H198.291V222.604H199.562V228.968H200.602L200.479 232.194H199.344V230H190.348V222.604H191.619ZM205.045 230.137C204.042 230.137 203.227 229.809 202.598 229.152C201.969 228.492 201.654 227.61 201.654 226.507V226.274C201.654 225.541 201.793 224.887 202.071 224.312C202.354 223.734 202.746 223.283 203.247 222.959C203.753 222.631 204.3 222.467 204.888 222.467C205.849 222.467 206.597 222.784 207.13 223.417C207.663 224.05 207.93 224.957 207.93 226.138V226.664H202.919C202.937 227.393 203.149 227.983 203.555 228.435C203.965 228.881 204.484 229.104 205.113 229.104C205.56 229.104 205.938 229.013 206.248 228.831C206.558 228.649 206.829 228.407 207.062 228.106L207.834 228.708C207.214 229.66 206.285 230.137 205.045 230.137ZM204.888 223.506C204.377 223.506 203.949 223.693 203.603 224.066C203.256 224.436 203.042 224.955 202.96 225.625H206.665V225.529C206.629 224.887 206.455 224.39 206.146 224.039C205.836 223.684 205.416 223.506 204.888 223.506ZM202.68 220.628C202.68 220.423 202.741 220.252 202.864 220.115C202.992 219.974 203.179 219.903 203.425 219.903C203.671 219.903 203.858 219.974 203.985 220.115C204.113 220.252 204.177 220.423 204.177 220.628C204.177 220.833 204.113 221.004 203.985 221.141C203.858 221.277 203.671 221.346 203.425 221.346C203.179 221.346 202.992 221.277 202.864 221.141C202.741 221.004 202.68 220.833 202.68 220.628ZM205.619 220.642C205.619 220.437 205.681 220.263 205.804 220.122C205.931 219.981 206.118 219.91 206.364 219.91C206.61 219.91 206.797 219.981 206.925 220.122C207.052 220.263 207.116 220.437 207.116 220.642C207.116 220.847 207.052 221.018 206.925 221.154C206.797 221.291 206.61 221.359 206.364 221.359C206.118 221.359 205.931 221.291 205.804 221.154C205.681 221.018 205.619 220.847 205.619 220.642ZM219.12 226.384C219.12 227.509 218.863 228.416 218.348 229.104C217.833 229.793 217.135 230.137 216.256 230.137C215.358 230.137 214.652 229.852 214.137 229.282V232.844H212.872V222.604H214.027L214.089 223.424C214.604 222.786 215.319 222.467 216.235 222.467C217.124 222.467 217.826 222.802 218.341 223.472C218.86 224.142 219.12 225.074 219.12 226.268V226.384ZM217.855 226.24C217.855 225.406 217.678 224.748 217.322 224.265C216.967 223.782 216.479 223.54 215.859 223.54C215.094 223.54 214.52 223.88 214.137 224.559V228.093C214.515 228.767 215.094 229.104 215.873 229.104C216.479 229.104 216.96 228.865 217.315 228.387C217.675 227.904 217.855 227.188 217.855 226.24ZM225.3 230C225.227 229.854 225.168 229.594 225.122 229.221C224.534 229.831 223.832 230.137 223.017 230.137C222.287 230.137 221.688 229.932 221.219 229.521C220.754 229.107 220.521 228.583 220.521 227.949C220.521 227.179 220.813 226.582 221.396 226.158C221.984 225.73 222.809 225.516 223.871 225.516H225.102V224.935C225.102 224.493 224.969 224.142 224.705 223.882C224.441 223.618 224.051 223.485 223.536 223.485C223.085 223.485 222.707 223.599 222.401 223.827C222.096 224.055 221.943 224.331 221.943 224.654H220.672C220.672 224.285 220.802 223.93 221.062 223.588C221.326 223.242 221.681 222.968 222.128 222.768C222.579 222.567 223.074 222.467 223.611 222.467C224.464 222.467 225.131 222.681 225.614 223.109C226.097 223.533 226.348 224.119 226.366 224.866V228.271C226.366 228.95 226.453 229.49 226.626 229.891V230H225.3ZM223.201 229.036C223.598 229.036 223.974 228.934 224.329 228.729C224.685 228.523 224.942 228.257 225.102 227.929V226.411H224.11C222.561 226.411 221.786 226.865 221.786 227.771C221.786 228.168 221.918 228.478 222.183 228.701C222.447 228.924 222.786 229.036 223.201 229.036ZM232.416 224.627C232.416 224.281 232.284 224.007 232.02 223.807C231.755 223.602 231.393 223.499 230.933 223.499C230.486 223.499 230.112 223.615 229.812 223.848C229.515 224.08 229.367 224.354 229.367 224.668H228.109C228.109 224.025 228.378 223.499 228.916 223.089C229.454 222.679 230.126 222.474 230.933 222.474C231.799 222.474 232.473 222.66 232.956 223.034C233.439 223.403 233.681 223.932 233.681 224.62C233.681 224.953 233.58 225.258 233.38 225.536C233.179 225.814 232.895 226.035 232.525 226.199C233.387 226.491 233.817 227.065 233.817 227.922C233.817 228.601 233.555 229.139 233.031 229.535C232.507 229.932 231.808 230.13 230.933 230.13C230.08 230.13 229.376 229.923 228.82 229.508C228.269 229.089 227.993 228.523 227.993 227.812H229.251C229.251 228.173 229.41 228.482 229.729 228.742C230.053 228.997 230.454 229.125 230.933 229.125C231.416 229.125 231.805 229.013 232.102 228.79C232.398 228.567 232.546 228.277 232.546 227.922C232.546 227.507 232.421 227.211 232.17 227.033C231.924 226.851 231.539 226.76 231.015 226.76H229.75V225.693H231.124C231.985 225.671 232.416 225.315 232.416 224.627Z" fill="#999999"/>
<path d="M118.953 224.627C118.953 224.281 118.821 224.007 118.557 223.807C118.292 223.602 117.93 223.499 117.47 223.499C117.023 223.499 116.649 223.615 116.349 223.848C116.052 224.08 115.904 224.354 115.904 224.668H114.646C114.646 224.025 114.915 223.499 115.453 223.089C115.991 222.679 116.663 222.474 117.47 222.474C118.336 222.474 119.01 222.66 119.493 223.034C119.976 223.403 120.218 223.932 120.218 224.62C120.218 224.953 120.118 225.258 119.917 225.536C119.716 225.814 119.432 226.035 119.062 226.199C119.924 226.491 120.354 227.065 120.354 227.922C120.354 228.601 120.092 229.139 119.568 229.535C119.044 229.932 118.345 230.13 117.47 230.13C116.618 230.13 115.913 229.923 115.357 229.508C114.806 229.089 114.53 228.523 114.53 227.812H115.788C115.788 228.173 115.948 228.482 116.267 228.742C116.59 228.997 116.991 229.125 117.47 229.125C117.953 229.125 118.342 229.013 118.639 228.79C118.935 228.567 119.083 228.277 119.083 227.922C119.083 227.507 118.958 227.211 118.707 227.033C118.461 226.851 118.076 226.76 117.552 226.76H116.287V225.693H117.661C118.522 225.671 118.953 225.315 118.953 224.627ZM126.562 230C126.489 229.854 126.429 229.594 126.384 229.221C125.796 229.831 125.094 230.137 124.278 230.137C123.549 230.137 122.95 229.932 122.48 229.521C122.016 229.107 121.783 228.583 121.783 227.949C121.783 227.179 122.075 226.582 122.658 226.158C123.246 225.73 124.071 225.516 125.133 225.516H126.363V224.935C126.363 224.493 126.231 224.142 125.967 223.882C125.702 223.618 125.313 223.485 124.798 223.485C124.347 223.485 123.968 223.599 123.663 223.827C123.358 224.055 123.205 224.331 123.205 224.654H121.934C121.934 224.285 122.063 223.93 122.323 223.588C122.588 223.242 122.943 222.968 123.39 222.768C123.841 222.567 124.335 222.467 124.873 222.467C125.725 222.467 126.393 222.681 126.876 223.109C127.359 223.533 127.61 224.119 127.628 224.866V228.271C127.628 228.95 127.715 229.49 127.888 229.891V230H126.562ZM124.463 229.036C124.859 229.036 125.235 228.934 125.591 228.729C125.946 228.523 126.204 228.257 126.363 227.929V226.411H125.372C123.823 226.411 123.048 226.865 123.048 227.771C123.048 228.168 123.18 228.478 123.444 228.701C123.709 228.924 124.048 229.036 124.463 229.036ZM134.389 223.649H130.978V230H129.706V222.604H134.389V223.649ZM141.737 226.384C141.737 227.509 141.48 228.416 140.965 229.104C140.45 229.793 139.753 230.137 138.873 230.137C137.975 230.137 137.269 229.852 136.754 229.282V232.844H135.489V222.604H136.645L136.706 223.424C137.221 222.786 137.937 222.467 138.853 222.467C139.741 222.467 140.443 222.802 140.958 223.472C141.478 224.142 141.737 225.074 141.737 226.268V226.384ZM140.473 226.24C140.473 225.406 140.295 224.748 139.939 224.265C139.584 223.782 139.096 223.54 138.477 223.54C137.711 223.54 137.137 223.88 136.754 224.559V228.093C137.132 228.767 137.711 229.104 138.49 229.104C139.096 229.104 139.577 228.865 139.933 228.387C140.293 227.904 140.473 227.188 140.473 226.24ZM145.688 228.147L147.411 222.604H148.765L145.791 231.142C145.331 232.372 144.599 232.987 143.597 232.987L143.357 232.967L142.886 232.878V231.853L143.228 231.88C143.656 231.88 143.989 231.793 144.226 231.62C144.467 231.447 144.665 231.13 144.82 230.67L145.101 229.918L142.462 222.604H143.843L145.688 228.147ZM153.967 224.627C153.967 224.281 153.835 224.007 153.57 223.807C153.306 223.602 152.944 223.499 152.483 223.499C152.037 223.499 151.663 223.615 151.362 223.848C151.066 224.08 150.918 224.354 150.918 224.668H149.66C149.66 224.025 149.929 223.499 150.467 223.089C151.005 222.679 151.677 222.474 152.483 222.474C153.349 222.474 154.024 222.66 154.507 223.034C154.99 223.403 155.231 223.932 155.231 224.62C155.231 224.953 155.131 225.258 154.931 225.536C154.73 225.814 154.445 226.035 154.076 226.199C154.938 226.491 155.368 227.065 155.368 227.922C155.368 228.601 155.106 229.139 154.582 229.535C154.058 229.932 153.358 230.13 152.483 230.13C151.631 230.13 150.927 229.923 150.371 229.508C149.82 229.089 149.544 228.523 149.544 227.812H150.802C150.802 228.173 150.961 228.482 151.28 228.742C151.604 228.997 152.005 229.125 152.483 229.125C152.966 229.125 153.356 229.013 153.652 228.79C153.949 228.567 154.097 228.277 154.097 227.922C154.097 227.507 153.971 227.211 153.721 227.033C153.475 226.851 153.09 226.76 152.565 226.76H151.301V225.693H152.675C153.536 225.671 153.967 225.315 153.967 224.627ZM161.794 222.604H163.059V230H161.794V224.606L158.383 230H157.118V222.604H158.383V228.004L161.794 222.604ZM170.585 223.629H168.104V230H166.839V223.629H164.405V222.604H170.585V223.629ZM173.196 225.153H175.117C175.956 225.162 176.619 225.381 177.106 225.81C177.594 226.238 177.838 226.819 177.838 227.553C177.838 228.291 177.587 228.883 177.086 229.33C176.585 229.777 175.91 230 175.062 230H171.932V222.604H173.196V225.153ZM173.196 226.186V228.968H175.076C175.55 228.968 175.917 228.847 176.177 228.605C176.437 228.359 176.566 228.024 176.566 227.601C176.566 227.19 176.439 226.855 176.184 226.596C175.933 226.331 175.58 226.195 175.124 226.186H173.196Z" fill="#356EFF"/>
<path d="M113.929 231.367H178.46V232.051H113.929V231.367Z" fill="#356EFF"/>
<g clip-path="url(#clip0)">
<path d="M248.721 137.801C246.702 132.622 245.195 127.124 243.55 121.318C242.439 117.403 240.651 113.026 236.778 111.795C233.005 110.596 228.945 113.081 226.629 116.287C224.308 119.492 223.142 123.374 221.156 126.799C217.558 133.001 211.194 135.602 205.93 130.148C198.41 122.357 195.027 111.74 190.258 102.239C186.798 95.3442 183.899 87.2673 179.536 80.9114C172.886 71.2181 163.766 62.9543 151.642 62.9543C143.957 64.12 137.185 70.9212 132.598 79.4269C128.016 87.9326 125.342 98.0438 123.065 108.133C118.923 126.48 115.886 145.251 112.855 164C112.855 164 265.839 162.219 265.845 162.219C265.234 162.224 261.488 157.215 260.767 156.523C254.893 150.837 251.366 144.591 248.721 137.801Z" fill="#DCE6EF"/>
<path d="M219.682 146.543C219.379 152.487 212.91 162.879 206.964 162.582C201.017 162.285 197.843 151.404 198.146 145.46C198.448 139.517 204.78 109.771 210.726 110.068C216.673 110.365 219.984 140.6 219.682 146.543Z" fill="#6AA5FE"/>
<path d="M210.44 113.934L207.442 162.103" stroke="#1A55B5" stroke-width="0.8675" stroke-miterlimit="10" stroke-linecap="round" stroke-linejoin="round"/>
<path d="M206.072 145.306C204.719 148.281 203.685 151.398 203.063 154.653C202.75 156.303 202.546 158.089 203.294 159.59C204.109 161.234 205.918 162.191 207.728 162.488C212.151 163.214 216.568 160.509 219.159 156.852C221.75 153.202 222.872 148.737 223.901 144.377C224.709 140.946 225.507 137.466 227.036 134.266C227.691 132.897 231.53 127.602 229.715 126.233C227.234 124.281 220.045 126.403 215.44 131.429C211.65 135.563 208.388 140.22 206.072 145.306Z" fill="#FFC957"/>
<path d="M207.728 162.483C207.728 162.483 213.064 141.716 225.953 129.807" stroke="#6AA5FE" stroke-width="0.8675" stroke-miterlimit="10" stroke-linecap="round" stroke-linejoin="round"/>
<path d="M237.334 140.407C236.877 141.226 236.019 141.782 235.243 142.222C234.286 142.76 233.263 143.233 232.279 143.695C231.013 144.283 229.704 144.894 228.494 145.652C227.614 146.208 226.827 146.829 226.173 147.5C227.212 145.141 228.422 143.085 229.853 141.243C231.734 138.824 233.665 137.598 235.596 137.598C235.64 137.598 235.684 137.598 235.728 137.598C236.322 137.614 236.789 137.763 237.108 138.038C237.763 138.598 237.735 139.681 237.334 140.407Z" fill="#1A55B5"/>
<path d="M239.49 153.834C238.726 154.378 237.713 154.516 236.822 154.582C235.728 154.658 234.6 154.653 233.511 154.642C232.114 154.631 230.667 154.62 229.253 154.79C228.219 154.911 227.245 155.142 226.365 155.467C228.313 153.779 230.293 152.437 232.372 151.387C235.112 150.002 237.378 149.721 239.122 150.546C239.16 150.562 239.204 150.584 239.243 150.606C239.776 150.876 240.134 151.211 240.304 151.596C240.651 152.382 240.161 153.355 239.49 153.834Z" fill="#1A55B5"/>
<path d="M234.402 160.443C233.769 160.355 233.197 159.948 232.724 159.563C232.141 159.09 231.585 158.557 231.046 158.045C230.353 157.386 229.644 156.704 228.857 156.127C228.285 155.703 227.691 155.362 227.102 155.109C228.863 155.181 230.474 155.445 232.004 155.896C234.011 156.489 235.277 157.413 235.755 158.639C235.766 158.667 235.777 158.694 235.788 158.727C235.926 159.112 235.948 159.442 235.854 159.717C235.656 160.267 234.963 160.52 234.402 160.443Z" fill="#1A55B5"/>
<path d="M219.929 162.598C219.929 162.598 219.99 149.892 235.513 139.104" stroke="#2A294F" stroke-width="0.7798" stroke-miterlimit="10" stroke-linecap="round" stroke-linejoin="round"/>
<path d="M219.929 162.598C219.929 162.598 224.698 152.388 237.62 152.388" stroke="#2A294F" stroke-width="0.7798" stroke-miterlimit="10" stroke-linecap="round" stroke-linejoin="round"/>
<path d="M226.965 155.23C226.965 155.23 229.468 155.049 234.694 158.986" stroke="#2A294F" stroke-width="0.7798" stroke-miterlimit="10" stroke-linecap="round" stroke-linejoin="round"/>
<path d="M86.5282 162.708C82.9416 149.149 79.3331 135.585 75.1139 122.456C72.7376 115.05 70.1082 107.677 66.4611 101.755C62.814 95.8335 57.9843 91.4624 53.1325 91.4899C45.6624 92.9359 40.8382 100.309 37.6752 108.479C35.6014 113.835 34.5947 120.322 33.1315 125.986C31.1127 133.782 30.051 142.266 26.1729 149.083C23.4555 153.861 19.2803 152.641 16.4639 148.352C14.9127 145.982 13.8125 143.167 12.0742 141.007C10.336 138.846 7.59105 137.438 5.38521 138.802C3.11336 140.204 2.43676 143.745 2.12871 146.857C1.67764 151.47 1.27608 155.83 0.533468 160.014C0.373943 160.927 0.192415 161.823 -0.00561523 162.719H86.5282V162.708Z" fill="#DCE6EF"/>
<path d="M54.4418 143.992C52.1975 141.408 49.359 139.176 48.4679 135.915C47.8133 133.535 48.3304 131.011 48.5834 128.553C48.8364 126.096 48.7484 123.379 47.1587 121.488C45.8495 119.927 43.7757 119.25 41.7844 118.821C39.7931 118.393 37.7137 118.123 35.948 117.111C33.0765 115.468 33.6486 112.669 32.1084 110.217C30.3811 107.462 26.3545 103.949 22.911 105.78C19.2584 107.715 19.836 113.598 22.2674 116.193C23.8791 117.914 25.9419 119.569 26.1785 121.911C26.536 125.441 22.4874 128.625 23.5986 131.995C24.4237 134.486 27.5592 135.338 29.1104 137.455C30.6451 139.55 30.3371 142.48 29.4295 144.91C28.5273 147.341 27.1026 149.589 26.5415 152.124C25.3918 157.303 29.457 160.888 34.0942 162.043C38.3518 163.104 47.5382 162.604 47.5382 162.604C50.8167 161.46 54.4528 158.579 56.2516 155.434C57.6158 153.059 57.8028 150.046 56.7467 147.516C56.2076 146.213 55.3769 145.075 54.4418 143.992Z" fill="#FFC957"/>
<path d="M26.9871 111.366C26.9871 111.366 42.67 135.58 44.3752 162.466" stroke="#6AA5FE" stroke-miterlimit="10" stroke-linecap="round" stroke-linejoin="round"/>
<path d="M13.0203 144.025C13.2624 143.816 13.6144 143.706 14.0655 143.695C14.0985 143.695 14.1315 143.695 14.1645 143.695C15.6222 143.695 17.0855 144.625 18.5047 146.455C19.5883 147.846 20.5015 149.402 21.2881 151.184C20.793 150.678 20.1989 150.205 19.5333 149.787C18.6202 149.215 17.63 148.754 16.6729 148.308C15.9248 147.962 15.1547 147.605 14.4285 147.192C13.84 146.862 13.1909 146.439 12.8498 145.823C12.5418 145.273 12.5253 144.454 13.0203 144.025Z" fill="#6AA5FE"/>
<path d="M10.6054 154.279C10.7374 153.988 11.007 153.735 11.4085 153.531C11.436 153.515 11.469 153.504 11.4965 153.488C12.8167 152.861 14.533 153.075 16.6013 154.125C18.1746 154.923 19.6708 155.934 21.1395 157.21C20.4739 156.962 19.7368 156.792 18.9557 156.698C17.883 156.572 16.7883 156.577 15.7322 156.583C14.9071 156.588 14.0599 156.594 13.2293 156.534C12.5582 156.484 11.7881 156.38 11.216 155.973C10.7099 155.61 10.3414 154.879 10.6054 154.279Z" fill="#6AA5FE"/>
<path d="M13.9664 160.415C13.8949 160.212 13.9114 159.959 14.0159 159.668C14.0214 159.646 14.0324 159.624 14.0379 159.602C14.401 158.672 15.3526 157.974 16.8764 157.523C18.0316 157.182 19.2527 156.984 20.5839 156.929C20.1384 157.122 19.6873 157.38 19.2582 157.699C18.6642 158.139 18.1251 158.656 17.6025 159.151C17.1954 159.541 16.7774 159.942 16.3373 160.3C15.9797 160.591 15.5507 160.899 15.0721 160.965C14.643 161.026 14.115 160.833 13.9664 160.415Z" fill="#6AA5FE"/>
<path d="M26.0077 162.598C26.0077 162.598 25.9637 152.987 14.2249 144.833" stroke="#2A294F" stroke-width="0.7798" stroke-miterlimit="10" stroke-linecap="round" stroke-linejoin="round"/>
<path d="M26.0077 162.598C26.0077 162.598 22.4046 154.879 12.6296 154.879" stroke="#2A294F" stroke-width="0.7798" stroke-miterlimit="10" stroke-linecap="round" stroke-linejoin="round"/>
<path d="M20.6883 157.028C20.6883 157.028 18.796 156.891 14.8464 159.871" stroke="#2A294F" stroke-width="0.7798" stroke-miterlimit="10" stroke-linecap="round" stroke-linejoin="round"/>
<path d="M151.95 162.598H48.4459C45.5744 162.598 43.2476 160.272 43.2476 157.402V17.1216C43.2476 14.2515 45.5744 11.9258 48.4459 11.9258H151.95C154.821 11.9258 157.148 14.2515 157.148 17.1216V157.408C157.148 160.272 154.821 162.598 151.95 162.598Z" fill="#6AA5FE"/>
<path d="M43.2529 48.6316V157.408C43.2529 160.278 45.5798 162.604 48.4512 162.604H151.955C154.827 162.604 157.153 160.278 157.153 157.408V135.937L43.2529 48.6316Z" fill="#527EE9"/>
<path d="M148.407 155.648H51.9939C50.8222 155.648 49.8706 154.697 49.8706 153.526V20.9978C49.8706 19.8267 50.8222 18.8755 51.9939 18.8755H148.407C149.579 18.8755 150.531 19.8267 150.531 20.9978V153.526C150.531 154.697 149.579 155.648 148.407 155.648Z" fill="#F3F4F6"/>
<path d="M108.834 9.07764C108.84 8.93468 108.856 8.79723 108.856 8.64878C108.856 3.87085 104.978 -0.00537109 100.198 -0.00537109C95.4177 -0.00537109 91.5396 3.87085 91.5396 8.64878C91.5396 8.79173 91.5561 8.93468 91.5616 9.07764H78.8381V22.2678H121.558V9.07764H108.834Z" fill="#1A55B5"/>
<path d="M78.8435 9.07764V22.2678H121.558L78.8435 9.07764Z" fill="#2C6BC6"/>
<path d="M102.069 13.1364C104.547 12.1035 105.719 9.25764 104.686 6.78001C103.652 4.30238 100.805 3.13121 98.3262 4.16414C95.8474 5.19707 94.6756 8.04294 95.7091 10.5206C96.7425 12.9982 99.5898 14.1694 102.069 13.1364Z" fill="#527EE9"/>
<path d="M96.7654 5.21802C94.8676 7.11489 94.8676 10.1939 96.7654 12.0908C98.6632 13.9876 101.744 13.9876 103.641 12.0908L96.7654 5.21802Z" fill="#6AA5FE"/>
<path d="M121.563 22.2678H78.8435V23.175H121.563V22.2678Z" fill="#CDE1F9"/>
<path d="M161.78 54.421C161.444 54.6794 158.391 56.4828 158.391 56.4828L156.224 53.7118L156.867 50.5503L161.532 50.8417L162.346 53.2004C162.539 53.7557 162.192 54.1021 161.78 54.421Z" fill="#FE9280"/>
<path d="M161.527 50.8363L162.231 52.9036L160.08 53.7668C159.673 53.9428 159.211 53.9758 158.782 53.8603C157.836 53.6074 157.214 52.6892 157.335 51.716L157.473 50.5779L161.527 50.8363Z" fill="#E86767"/>
<path d="M160.47 53.602L162.335 53.8714L163.358 52.123C163.556 51.8096 163.463 51.3917 163.149 51.1883C162.836 50.9904 162.418 51.0838 162.214 51.3972L160.47 53.602Z" fill="#FF746F"/>
<path d="M159.062 61.0796L155.217 62.0528L153.842 73.1811L158.342 73.3625L159.062 61.0796Z" fill="white"/>
<path d="M209.615 70.1129L202.893 69.2662L204.433 57.0547L211.155 57.9014C214.527 58.3248 216.92 61.4038 216.497 64.7796C216.068 68.15 212.987 70.5363 209.615 70.1129Z" fill="#FE9280"/>
<path opacity="0.2" d="M209.967 67.331L203.245 66.4843L202.893 69.2664L209.615 70.1131C212.987 70.5365 216.068 68.1503 216.497 64.7744C216.557 64.296 216.557 63.8232 216.513 63.3613C215.539 65.9895 212.861 67.6994 209.967 67.331Z" fill="#777470"/>
<path d="M202.074 69.1673L130.766 59.9743L132.301 47.7573L203.614 56.9503L202.074 69.1673Z" fill="#FFC957"/>
<path d="M118.059 52.1669L130.766 59.9743L132.301 47.7573L118.059 52.1669Z" fill="#FFF4DD"/>
<path opacity="0.2" d="M118.059 52.1667L130.766 59.9742L131.14 56.9832L118.059 52.1667Z" fill="#777470"/>
<path d="M122.3 50.8584L118.059 52.167L121.844 54.4927L122.3 50.8584Z" fill="#2A294F"/>
<path d="M209.521 57.695L203.621 56.9526L202.082 69.1671L207.982 69.9094L209.521 57.695Z" fill="#D3EAF5"/>
<path d="M209.59 57.1752L207.571 56.9211L205.901 70.183L207.92 70.4371L209.59 57.1752Z" fill="#D3EAF5"/>
<path opacity="0.2" d="M205.957 69.6565L130.766 59.9742L131.14 56.9832L206.337 66.6655L205.957 69.6565Z" fill="#777470"/>
<path opacity="0.05" d="M207.197 60.6733L132 50.9855L132.374 48L207.571 57.6823L207.197 60.6733Z" fill="#777470"/>
<path opacity="0.15" d="M208.428 66.381L206.408 66.127L205.898 70.1802L207.917 70.4343L208.428 66.381Z" fill="#777470"/>
<path d="M178.678 93.8981L179.691 91.2975L183.085 91.0336C183.712 90.9676 184.262 91.347 184.322 91.8803C184.377 92.4136 183.921 92.9029 183.294 92.9689L178.678 93.8981Z" fill="#E86767"/>
<path d="M176.929 91.3085L178.678 93.8981L182.006 93.2274L178.299 87.6797L177.578 88.1525C176.528 88.8453 176.236 90.2583 176.929 91.3085Z" fill="#FF746F"/>
<path d="M180.208 49.5937C176.748 44.5574 168.04 45.899 168.265 53.9703C168.265 53.9923 168.265 54.0198 168.271 54.0418C168.249 55.0644 168.282 56.1091 168.018 57.0713C167.88 57.5606 167.649 58.0115 167.292 58.3359C166.94 58.6658 166.483 58.8637 166.005 58.9627C165.52 59.0726 164.992 59.0946 164.453 59.2046C163.909 59.3145 163.381 59.5125 162.902 59.7984C161.939 60.3592 161.153 61.2774 160.795 62.3605C160.108 64.5158 160.658 67.012 162.281 68.634C162.688 69.0298 163.161 69.3707 163.683 69.6126C164.2 69.8656 164.789 69.959 165.267 70.058C166.274 70.2779 167.292 70.5693 168.326 70.7728L168.353 70.6848C167.396 70.2449 166.456 69.7831 165.443 69.4312C164.915 69.2443 164.464 69.1398 164.052 68.8869C163.645 68.645 163.265 68.3481 162.946 67.9907C162.308 67.2814 161.84 66.4072 161.576 65.4725C161.312 64.5378 161.257 63.5317 161.521 62.6025C161.78 61.6788 162.402 60.876 163.227 60.3427C163.634 60.0733 164.096 59.8809 164.574 59.7599C165.058 59.6389 165.586 59.5895 166.12 59.4465C166.654 59.309 167.182 59.0396 167.572 58.6218C167.968 58.2094 168.194 57.6761 168.304 57.1483C168.381 56.7744 168.419 56.395 168.43 56.0211C168.524 57.5276 168.392 59.0561 166.846 59.6334C165.955 59.9688 165.086 59.9688 164.255 60.5186C163.441 61.063 162.798 61.8657 162.484 62.7894C161.51 65.643 164.041 69.3377 167.017 69.6566C168.249 69.7886 169.481 70.0855 170.697 70.3054C171.038 70.3659 175.824 71.3446 175.862 71.2346L181.401 54.8445L180.208 49.5937Z" fill="#1A55B5"/>
<path d="M179.944 90.1374L191.176 82.3024L189.609 77.9644L178.299 87.6742L179.944 90.1374Z" fill="white"/>
<path d="M188.173 81.2302C188.706 82.3519 190.049 82.8357 191.171 82.3024C192.293 81.7691 192.777 80.4275 192.243 79.3059C191.71 78.1842 190.368 77.7004 189.246 78.2337C188.123 78.7615 187.645 80.1031 188.173 81.2302Z" fill="white"/>
<path d="M188.734 82.0385L191.935 78.8716L182.688 68.4745C181.638 67.056 179.575 66.902 178.321 68.1391C177.067 69.3762 177.204 72.8235 178.607 73.8902L188.734 82.0385Z" fill="white"/>
<path d="M173.091 67.6713L176.878 67.9919L177.55 60.0647L173.763 59.744L173.091 67.6713Z" fill="#FF746F"/>
<path d="M155.85 71.4986C154.607 71.5811 153.672 72.6532 153.754 73.8958C153.837 75.1384 154.909 76.0731 156.152 75.9906C157.396 75.9082 158.331 74.836 158.248 73.5934C158.166 72.3508 157.093 71.4107 155.85 71.4986Z" fill="white"/>
<path d="M154.431 71.8284L156.714 75.8806L170.658 71.8284C172.369 71.394 173.293 68.1611 172.622 66.5336C171.951 64.9062 169.987 64.2464 168.469 65.1481L154.431 71.8284Z" fill="white"/>
<path d="M175.774 87.4597L182.832 70.1514C183.189 68.7328 182.232 67.3253 180.785 67.1274L170.653 64.8291C169.206 64.6312 167.908 65.7363 167.875 67.1989L164.409 86.0741L175.774 87.4597Z" fill="white"/>
<path d="M174.635 50.5173C173.464 51.9963 171.362 52.6176 170.867 53.9757L170.763 54.6025C170.763 54.63 170.763 54.6575 170.763 54.6905L170.752 54.6685L170.433 56.5653C170.026 58.968 171.648 61.2443 174.052 61.6512C176.456 62.058 178.733 60.4361 179.14 58.0334L179.504 55.8946C179.245 53.7283 175.273 53.5578 174.635 50.5173Z" fill="#FF746F"/>
<path d="M178.673 57.0274C178.579 57.5827 178.953 58.1161 179.514 58.2095C180.07 58.303 180.604 57.9291 180.697 57.3683C180.791 56.813 180.417 56.2797 179.855 56.1862C179.3 56.0927 178.772 56.4666 178.673 57.0274Z" fill="#FF746F"/>
<path d="M169.399 86.6845L174.476 99.2149L169.624 157.754H165.895L161.505 98.852L164.404 86.0742L169.399 86.6845Z" fill="#1A55B5"/>
<path d="M169.398 86.6846V99.2149L192.254 157.754H195.054L182.826 97.0047L175.774 87.4598L169.398 86.6846Z" fill="#527EE9"/>
<path d="M167.985 160.811H166.423V157.754H168.447L167.985 160.811Z" fill="#FF746F"/>
<path d="M166.373 160.118L167.286 160.52L168.128 160.118L168.892 162.598H161.846L164.492 161.361L166.373 160.118Z" fill="#2A294F"/>
<path d="M194.097 160.811H195.654L194.736 157.754H192.711L194.097 160.811Z" fill="#FF746F"/>
<path d="M195.709 160.118L194.796 160.52L193.949 160.118L193.19 162.598H200.236L197.59 161.361L195.709 160.118Z" fill="#2A294F"/>
<path d="M171.269 74.2696C171.269 76.0346 169.838 77.4641 168.073 77.4641C166.307 77.4641 164.877 76.0346 164.877 74.2696C164.877 72.5047 166.307 71.0752 168.073 71.0752C169.838 71.0752 171.269 72.5047 171.269 74.2696Z" fill="white"/>
<path d="M170.944 64.9172L171.346 71.779L177.281 65.7365L170.944 64.9172Z" fill="#FF746F"/>
<path d="M183.866 51.0509C183.36 50.4021 182.738 49.8798 182.05 49.5224C180.934 48.9341 179.674 49.0001 178.651 48.1204L179.449 56.1752C180.917 55.7573 180.829 58.9188 179.135 58.0446C179.135 58.0446 175.774 59.4851 174.498 62.6301C173.623 64.7414 173.475 67.2101 173.706 68.6176C174.118 71.1413 176.258 72.4499 178.695 71.7076C180.147 71.2622 181.33 70.1681 182.172 68.898C185.114 64.4555 187.073 57.1539 184.559 52.1395C184.355 51.7437 184.124 51.3808 183.866 51.0509Z" fill="#1A55B5"/>
<path d="M156.824 50.0776L156.741 50.589C156.571 51.6556 157.297 52.6618 158.364 52.8377L159.2 52.9697C160.267 53.1401 161.274 52.4144 161.45 51.3477L161.532 50.8364L156.824 50.0776Z" fill="#FF746F"/>
<path d="M172.405 57.4561C172.617 57.6838 174.212 58.447 174.444 58.3896C174.695 58.3258 174.862 58.0632 174.869 57.8032C174.876 57.5433 174.748 57.2984 174.585 57.1009C174.202 56.657 173.579 56.433 173 56.5339C172.779 56.5715 172.561 56.6612 172.422 56.8402C172.279 57.0125 172.25 57.2894 172.405 57.4561Z" fill="white"/>
<path d="M0.478516 162.598H266.785" stroke="#2A294F" stroke-width="0.7798" stroke-miterlimit="10" stroke-linecap="round" stroke-linejoin="round"/>
<circle cx="88.5" cy="84.5" r="3.5" fill="#FF746F"/>
<circle cx="101.5" cy="84.5" r="3.5" fill="#FF746F"/>
<circle cx="114.5" cy="84.5" r="3.5" fill="#FF746F"/>
</g>
<defs>
<clipPath id="clip0">
<rect width="267" height="164" fill="white"/>
</clipPath>
</defs>
</svg>
