<svg width="24" height="24" viewBox="0 0 24 24" fill="none" xmlns="http://www.w3.org/2000/svg">
<path d="M12 0C5.37281 0 0 5.37256 0 12C0 18.6274 5.37281 24 12 24C18.6272 24 24 18.6274 24 12C24 5.37256 18.6272 0 12 0ZM18.087 14.2978C18.6463 14.8441 19.2381 15.3583 19.7402 15.961C19.9626 16.2277 20.1723 16.5034 20.3319 16.8135C20.5597 17.2557 20.354 17.7406 19.9582 17.7669L17.4997 17.7664C16.8648 17.8189 16.3595 17.5628 15.9335 17.1287C15.5935 16.7828 15.278 16.4133 14.9505 16.0555C14.8167 15.9087 14.6757 15.7705 14.5078 15.6617C14.1726 15.4437 13.8815 15.5105 13.6895 15.8606C13.4938 16.2169 13.4491 16.6117 13.4304 17.0082C13.4037 17.5879 13.2288 17.7394 12.6472 17.7666C11.4044 17.8248 10.2251 17.6362 9.12908 17.0097C8.16221 16.457 7.41385 15.677 6.76174 14.7938C5.49189 13.0722 4.51937 11.1826 3.64554 9.23881C3.44888 8.80104 3.59276 8.56681 4.0757 8.55773C4.87808 8.54226 5.68045 8.54423 6.48282 8.55699C6.80937 8.56215 7.02543 8.74899 7.1509 9.05713C7.58449 10.1239 8.11605 11.1389 8.78216 12.0803C8.95967 12.3309 9.14087 12.5809 9.39892 12.7579C9.68372 12.9534 9.90077 12.8888 10.0351 12.5708C10.121 12.3688 10.1581 12.1527 10.1767 11.9361C10.2406 11.1944 10.2482 10.4529 10.1377 9.71415C10.069 9.25183 9.80894 8.95327 9.34809 8.86586C9.11337 8.82142 9.14774 8.73451 9.26191 8.60045C9.46005 8.36868 9.64567 8.22529 10.0167 8.22529L12.7943 8.2248C13.232 8.31073 13.3303 8.50715 13.3897 8.94811L13.3921 12.0348C13.387 12.2055 13.4778 12.7113 13.7842 12.823C14.0297 12.904 14.1918 12.7071 14.3386 12.5517C15.0047 11.8448 15.4793 11.0105 15.9043 10.147C16.0919 9.7662 16.2537 9.37213 16.4108 8.97733C16.5277 8.6854 16.7094 8.54177 17.0389 8.54668L19.7136 8.54987C19.7924 8.54987 19.8725 8.55061 19.9506 8.56411C20.4014 8.64121 20.5248 8.83517 20.3854 9.27491C20.1659 9.96581 19.7394 10.5413 19.3225 11.1183C18.8757 11.736 18.3991 12.3322 17.9567 12.9526C17.5501 13.5198 17.5822 13.8053 18.087 14.2978Z" fill="#999999"/>
</svg>
